PathFileType	4	(X/Y/Z)	/Users/niels/Desktop/University/Third Semester/Perception and Action/Exam/Gymnastics Motion Tracking/Code for Gym Tracking/Analyzed Data/Webcam_Backflip/id7_5_baseline_Sports2D/id7_5_baseline_Sports2D_px_person00.trc
DataRate	CameraRate	NumFrames	NumMarkers	Units	OrigDataRate	OrigDataStartFrame	OrigNumFrames
29.8125	29.8125	10	22	m	29.8125	140	160
Frame#	Time	Hip			RHip			RKnee			RAnkle			RBigToe			RSmallToe			RHeel			LHip			LKnee			LAnkle			LBigToe			LSmallToe			LHeel			Neck			Head			Nose			RShoulder			RElbow			RWrist			LShoulder			LElbow			LWrist		
		X1	Y1	Z1	X2	Y2	Z2	X3	Y3	Z3	X4	Y4	Z4	X5	Y5	Z5	X6	Y6	Z6	X7	Y7	Z7	X8	Y8	Z8	X9	Y9	Z9	X10	Y10	Z10	X11	Y11	Z11	X12	Y12	Z12	X13	Y13	Z13	X14	Y14	Z14	X15	Y15	Z15	X16	Y16	Z16	X17	Y17	Z17	X18	Y18	Z18	X19	Y19	Z19	X20	Y20	Z20	X21	Y21	Z21	X22	Y22	Z22
140	4.696016771488469	0.9434053867604619	-0.5209597861901173	0.0	0.9203495729576208	-0.5222633074549601	0.0	0.924573350429391	-0.630456193311825	0.0	0.9206429610895498	-0.7381576827548179	0.0	0.9386214344346399	-0.7655146423403706	0.0	0.9233219115488146	-0.7650952184598302	0.0	0.918590396907669	-0.7512014851842174	0.0	0.9673795349664255	-0.524132003044092	0.0	0.9636641325116381	-0.6328743945939914	0.0	0.9617363012971564	-0.7361867541047872	0.0	0.9646735517579463	-0.764811553633724	0.0	0.9775320654629693	-0.7619647104448343	0.0	0.956464631641682	-0.7488086470629918	0.0	0.9472124955045937	-0.3729996900795654	0.0	0.9490136066084982	-0.30683026732722185	0.0	0.9451592662398594	-0.341804047579086	0.0	0.9051479302493218	-0.3935530962692785	0.0	0.8925973334564707	-0.44184680089168676	0.0	0.9158903888731763	-0.4818029268970728	0.0	0.9888063084565967	-0.3941159759079869	0.0	0.9962832531606575	-0.4679604158550612	0.0	0.9893248835585524	-0.5268629820620911	0.0
141	4.729559748427672	0.9429375150590703	-0.5143171775312633	0.0	0.9200001774399795	-0.5156427791749415	0.0	0.9235841662244235	-0.6243876057263079	0.0	0.9184051125114899	-0.7342922662629401	0.0	0.9350314678195576	-0.7624657033973077	0.0	0.9193256675017385	-0.762010799791183	0.0	0.9166487009062568	-0.7473131254150548	0.0	0.9670259778571483	-0.5176148209648544	0.0	0.9626168593316162	-0.6268981677400745	0.0	0.9598795478345229	-0.7324630464480871	0.0	0.9622380996467856	-0.7616019670532241	0.0	0.9755079392186606	-0.7588359809153944	0.0	0.9545898325808118	-0.7452055351881756	0.0	0.9460737305376301	-0.3663253096720234	0.0	0.9476890374893038	-0.29973622052137144	0.0	0.9436618065369212	-0.3349885191923038	0.0	0.9037628469458889	-0.38718948051378865	0.0	0.890425759652013	-0.43257619777115186	0.0	0.9147282771272572	-0.47322199778732743	0.0	0.9877831786120781	-0.38716072861540524	0.0	0.9954586989422063	-0.46075187637395687	0.0	0.9871179408268149	-0.5189164541257935	0.0
142	4.763102725366876	0.9423883389488746	-0.5115289020345366	0.0	0.9195718458640069	-0.512898173332332	0.0	0.9221395055740246	-0.6223194648637863	0.0	0.915548257607598	-0.7343644387788312	0.0	0.9300533155409881	-0.7628923780446927	0.0	0.9138741825487304	-0.7622743946890921	0.0	0.9142080121054573	-0.7473023094138453	0.0	0.9665814304214617	-0.5148025405183181	0.0	0.9615508002366185	-0.6248495632538408	0.0	0.9584549354288041	-0.7326714626006653	0.0	0.9597068125839571	-0.7619025480918534	0.0	0.9735462756547041	-0.7592695093011204	0.0	0.953166258682175	-0.7453851859796348	0.0	0.9448894244682758	-0.36333742100475513	0.0	0.9461427433594647	-0.29626877913503447	0.0	0.9422044319623755	-0.33190293568791296	0.0	0.9025538948950337	-0.38441645021439547	0.0	0.8883800696805737	-0.42730438366259077	0.0	0.9136167744121484	-0.46813953618265247	0.0	0.9867282608513757	-0.3836672970101838	0.0	0.9943745132272795	-0.4570846945222005	0.0	0.9846924278114734	-0.5148588630363974	0.0
143	4.796645702306079	0.9417850811400171	-0.5128246430687692	0.0	0.9190664700775207	-0.5141856633933071	0.0	0.9203820897843776	-0.6244111740814301	0.0	0.9124479273815312	-0.7380368045023691	0.0	0.9244816468713479	-0.7664779631429508	0.0	0.907864015710645	-0.7655957809439032	0.0	0.9115319397608929	-0.7508834768306283	0.0	0.9659781483679617	-0.5159182895788961	0.0	0.9605290499817191	-0.6268795854417553	0.0	0.9573969157414972	-0.7365330303888926	0.0	0.9573931386159407	-0.7654836517961978	0.0	0.9718281170629202	-0.7630027523439674	0.0	0.9520591520481566	-0.7491077339391019	0.0	0.943726562957575	-0.3641865617950075	0.0	0.9444502207285427	-0.2965455131289393	0.0	0.9409534236514272	-0.3327116545387694	0.0	0.90161449120116	-0.38533209907737953	0.0	0.8864813897430526	-0.426537047345183	0.0	0.9125490769534941	-0.46672097104680293	0.0	0.9856777034395402	-0.3838364604386526	0.0	0.9930644926938	-0.45719414121858415	0.0	0.9821201879900482	-0.5149428577606131	0.0
144	4.830188679245282	0.9411852378317124	-0.5181457942864036	0.0	0.9184862509858959	-0.5194108752276867	0.0	0.9184762584015049	-0.6304945596196313	0.0	0.9095619826971806	-0.7448203737260157	0.0	0.919368000356772	-0.7727698956580464	0.0	0.9024801261490024	-0.7715883916224926	0.0	0.9089547548394968	-0.7576129043648651	0.0	0.9651992029643167	-0.5209336808106512	0.0	0.9595930448951524	-0.632865016670744	0.0	0.9565811245814442	-0.7436506389866587	0.0	0.9555868456461462	-0.7720028414810708	0.0	0.9704972786362095	-0.7696306449386987	0.0	0.9510760321360844	-0.7560473571385419	0.0	0.942640498649787	-0.3688191246079706	0.0	0.9427078767567453	-0.3005187691704853	0.0	0.9399744494529592	-0.33734285709496775	0.0	0.9009681007675457	-0.3899362931670457	0.0	0.8847699657394148	-0.43047474590646956	0.0	0.9115604030024309	-0.4690477892052204	0.0	0.9846377216705519	-0.3877402467004266	0.0	0.991622967867871	-0.46120595579894613	0.0	0.9794772111450957	-0.5191998430321461	0.0
145	4.863731656184486	0.9405988436622816	-0.5270897779298338	0.0	0.9178232703574694	-0.5282179592155573	0.0	0.9165948283424612	-0.6401024628095616	0.0	0.9072568478200713	-0.75425062779663	0.0	0.9155265586768669	-0.78134560791284	0.0	0.8986259452193995	-0.779882325713855	0.0	0.9067945075509225	-0.7669952924268969	0.0	0.964268256626758	-0.5295251645574139	0.0	0.9587349834720156	-0.6423841518472375	0.0	0.9559308663225178	-0.7535492159454378	0.0	0.9544817870130923	-0.7810164732678905	0.0	0.9696452425078381	-0.7786556482306565	0.0	0.9501599588617389	-0.765739284347187	0.0	0.941654138163707	-0.376938873576902	0.0	0.9410238192021737	-0.30799340289843385	0.0	0.9392494264595525	-0.34548592651975063	0.0	0.9005354488592806	-0.39805107860804567	0.0	0.8833120756676384	-0.43893515551012696	0.0	0.9107583729495661	-0.4751923464908622	0.0	0.9836441618720296	-0.39527443338407664	0.0	0.9901406384095826	-0.4690482616698526	0.0	0.9769015385937373	-0.5273919700579638	0.0
146	4.897274633123689	0.9399743992960253	-0.538893055761245	0.0	0.9170658026817962	-0.5400008410742998	0.0	0.9148952970018399	-0.6525194690023017	0.0	0.9057249898097486	-0.7658229746100075	0.0	0.9132326226717395	-0.7916955307811997	0.0	0.8965772956306004	-0.7899883065799691	0.0	0.9052824626192045	-0.7783957491169334	0.0	0.9632300405633236	-0.5411072959904153	0.0	0.9579341890281922	-0.6547024937495357	0.0	0.9554308421723429	-0.7655799839714966	0.0	0.9541504255608105	-0.7917997028161934	0.0	0.9692869671220149	-0.7893716386561366	0.0	0.9494218865581218	-0.7774741671162284	0.0	0.9407673716041647	-0.38798608745908447	0.0	0.9394689342455771	-0.3186411707660983	0.0	0.9386982586534387	-0.3565964399270179	0.0	0.9001716826085034	-0.4092003232416475	0.0	0.8821273128579593	-0.45122372179301756	0.0	0.9102626727012764	-0.485069593798321	0.0	0.9827786578060934	-0.406070232889896	0.0	0.9886785480492438	-0.48033701736745976	0.0	0.9746465707112406	-0.5390291080808248	0.0
147	4.930817610062892	0.9392709114962728	-0.552550073736106	0.0	0.9162370921501297	-0.553913172312609	0.0	0.9134567870602218	-0.6668022332462256	0.0	0.9049634732689632	-0.7788063818279207	0.0	0.9122430776302319	-0.8030598538219675	0.0	0.895994129214247	-0.8011560090542859	0.0	0.9044783076613235	-0.7909170824801751	0.0	0.9621627190435661	-0.5548707264406438	0.0	0.9572083649997153	-0.6688235764453849	0.0	0.95509261021706	-0.7788396261989152	0.0	0.9545678689934235	-0.8033005396361652	0.0	0.9693600526724719	-0.8008011463919291	0.0	0.9490106292226901	-0.7902687199362074	0.0	0.9399877154162058	-0.40115094135898977	0.0	0.9380557972425445	-0.3318626516106911	0.0	0.9382210117375245	-0.3698580601975427	0.0	0.8997475227777341	-0.42256825362706574	0.0	0.8811316072238632	-0.4661384608046004	0.0	0.9100990436170462	-0.4981616383590693	0.0	0.9821143678104658	-0.41941563878570215	0.0	0.9872744501585153	-0.4942937452339543	0.0	0.973056327214737	-0.5534071525637646	0.0
148	4.964360587002096	0.9385127468490368	-0.5669377407171451	0.0	0.915400257154838	-0.568885093661343	0.0	0.9122658220987927	-0.6818109315156702	0.0	0.9047944585743859	-0.7921896877277941	0.0	0.912033659928989	-0.8144811906534367	0.0	0.8961385016437979	-0.8124438736608319	0.0	0.9042472627438101	-0.8034635772696576	0.0	0.9611841011158309	-0.56978728130133	0.0	0.9566007543622471	-0.6836210550183637	0.0	0.9549259651181198	-0.7922768215489684	0.0	0.9556099511848785	-0.8144196906812714	0.0	0.9697580028871794	-0.8118850192143092	0.0	0.9489693351059382	-0.8030413504987053	0.0	0.9393330582111379	-0.4153614442124726	0.0	0.9367744485880889	-0.34662662801660665	0.0	0.9377379365287292	-0.38415286017285594	0.0	0.8991983629736637	-0.4370484253802538	0.0	0.8801819639911217	-0.48215576865995485	0.0	0.9101773983662259	-0.5133475826190799	0.0	0.9816583607404797	-0.4342290435954074	0.0	0.9859646701494676	-0.5097478982772514	0.0	0.9724991019928189	-0.5695795085553833	0.0
149	4.997903563941299	0.9377651375543434	-0.5808560738894873	0.0	0.914608787052042	-0.5836369451954714	0.0	0.9112867757570426	-0.6962936786725905	0.0	0.9049417757557777	-0.8048483835162675	0.0	0.9120690803611766	-0.8250789447213556	0.0	0.8961505407329674	-0.8229756898605453	0.0	0.904358451186445	-0.8150028320953651	0.0	0.9604088395816756	-0.5845956455002285	0.0	0.9561319039247014	-0.6979347370660437	0.0	0.9549263219953477	-0.8048796075429043	0.0	0.9570169832830675	-0.824373755239931	0.0	0.9703626163287932	-0.8218033315020857	0.0	0.9491983656987565	-0.8148422963364753	0.0	0.9388049337266051	-0.4292984178437238	0.0	0.935648410268011	-0.3614850965236203	0.0	0.9372009709391546	-0.3981223224266854	0.0	0.8985261332662707	-0.4513214423521231	0.0	0.8791821647973798	-0.49767463013315755	0.0	0.9103429776799776	-0.528967909816563	0.0	0.9813410090545619	-0.44910494341618534	0.0	0.9848208327171342	-0.5252461172933675	0.0	0.9732871207129783	-0.5862740822378874	0.0
